<?xml version="1.0" encoding="UTF-8"?>
<svg id="_Шар_1" data-name="Шар_1" xmlns="http://www.w3.org/2000/svg" version="1.1" viewBox="0 0 500 500">
  <!-- Generator: Adobe Illustrator 29.3.1, SVG Export Plug-In . SVG Version: 2.1.0 Build 151)  -->
  <defs>
    <style>
      .st0 {
          fill: #4B2E2B;
            stroke: #FFF8F0;
          stroke-width: 4px;
      }

      .st1 {
        fill: #fff;
      }

      .st2 {
        fill: #FFF8F0;
        font-family: LucidaSans, 'Lucida Sans';
        font-size: 25px;
      }

      .st3 {
        stroke: #FFF8F0;
      }

      .st3, .st4 {
        fill: none;
        stroke-miterlimit: 10;
        stroke-width: 4px;
      }

      .st4 {
        stroke: #000;
      }
    </style>
  </defs>
  <ellipse class="st0" cx="240.49" cy="246.75" rx="24.66" ry="22.3"/>
  <g>
    <path class="st1" d="M252.69,236.45c.36.2.54.45.59.79.07,1.21.01,4.65.03,9.28-.01,9.86.03,32.85-.02,38.9.09,2.66-3.2,4.79-4.66,1.41-.86-4.29-.15-8.4-.37-14.77-.16-3.21.37-5.92-.29-8.38-.5-.92-1.71-1.3-2.34-2.14-1.35-1.66-.35-7.23-.46-10.03.23-3.73.42-17.24,7.4-15.11l.11.05Z"/>
    <g>
      <path class="st4" d="M228.32,242.23"/>
      <path class="st1" d="M239.97,247.49c-.03,1.32.15,3.1-.21,4.44-.43,1.67-1.78,2.95-3.4,3.44-.24.09-.42.14-.51.21-.18.11-.1.28-.12.59,0,.43,0,.8,0,1.38,0,5.1,0,20.93,0,23.15-.17,1.64-3.59,1.66-3.81.02-.01-2.51,0-18.48,0-24.87.01-.19-.04-.27-.35-.39-1.68-.46-3.22-1.74-3.67-3.48-.2-.68-.23-1.33-.23-2.05,0-1.73.03-3.04.02-4.7,0-2.27,0-6.15,0-7.4-.17-1.27,1.33-2.21,2.38-1.34.85.69.43,2,.53,3.04,0,1.8,0,4.41,0,6,.04.33-.13.8.25.94.37.07,1.32.18,1.62-.12.14-.36.04-.84.07-1.66.04-2.57-.08-5.8.05-7.43.3-1.32,2.26-1.48,2.76-.18.18.5.08,1.4.1,2.09,0,1.9,0,4.28,0,6.07.02.9-.18,1.32.76,1.3,1.02.03.85-.32.85-1.3,0-1.81,0-4.23,0-6.15.03-.69-.08-1.56.12-2.05.63-1.45,2.84-.95,2.79.61.02,2.08-.02,7.1.01,9.8v.04Z"/>
    </g>
  </g>
  <text class="st2" transform="translate(184.58 310)"><tspan x="0" y="0">OmniDish</tspan></text>
  <path class="st3" d="M181.41,245.02c5.81-6.9,53.76-59.42,118.4.72,0,0-53.64,68.28-118.35.68-.38-.4-.4-.98-.05-1.4Z"/>
</svg>